#!OML:ASF G:\JayActor3\Patient Classification 1\Patient 1\Session 5\male.ASF
:FULLY-SPECIFIED
:DEGREES
466
root 20.9125 16.3161 -5.07577 223.673 -86.7936 -224.182
lowerback -0.417668 -1.77081 -1.85164
upperback 0.766824 -2.3441 -1.14978
thorax 1.04525 -1.1858 -0.172227
lowerneck -5.72137 1.02785 2.94734
upperneck 2.25779 1.10814 0.808174
head 1.68474 0.5937 -0.211066
rclavicle -2.43449e-014 7.25564e-015
rhumerus -32.6147 -7.71832 -84.4418
rradius 26.2994
rwrist 3.64999
rhand -19.2503 -8.4795
rfingers 7.12502
rthumb 7.06355 -38.3416
lclavicle -2.43449e-014 7.25564e-015
lhumerus -31.6139 -1.61636 85.2637
lradius 31.3745
lwrist 18.962
lhand -16.9279 13.6782
lfingers 7.12502
lthumb 9.30495 43.4529
rfemur -34.5806 9.1782 17.2541
rtibia 27.1491
rfoot -21.6757 -11.8834
rtoes -8.52943
lfemur 26.7059 9.71932 -23.0623
ltibia -3.18055e-015
lfoot -9.52192 2.50791
ltoes -16.7614
467
root 20.7383 16.3108 -5.09873 225.894 -86.817 -226.423
lowerback -0.532611 -1.78301 -1.88631
upperback 0.738351 -2.35724 -1.16795
thorax 1.08131 -1.19264 -0.175088
lowerneck -5.74883 1.01771 2.92458
upperneck 2.36748 1.09432 0.804897
head 1.72492 0.58827 -0.208422
rclavicle 8.64092e-015 -1.39149e-014
rhumerus -32.783 -7.85033 -84.3107
rradius 26.1187
rwrist 3.75778
rhand -19.2368 -8.49472
rfingers 7.12502
rthumb 7.0766 -38.3564
lclavicle 8.64092e-015 -1.39149e-014
lhumerus -31.7523 -1.30084 85.2141
lradius 31.0168
lwrist 18.8099
lhand -16.9592 13.7851
lfingers 7.12502
lthumb 9.2747 43.5611
rfemur -34.2914 9.03007 17.3574
rtibia 27.7894
rfoot -21.3307 -12.2258
rtoes -8.18515
lfemur 27.3215 9.65163 -22.8976
ltibia 4.77083e-014
lfoot -8.85842 2.27165
ltoes -17.7055
468
root 20.5614 16.3101 -5.12207 227.55 -86.8602 -228.117
lowerback -0.649302 -1.79312 -1.88169
upperback 0.718914 -2.36764 -1.17367
thorax 1.1265 -1.19788 -0.187381
lowerneck -5.75578 1.00826 2.91189
upperneck 2.4516 1.08229 0.789014
head 1.75339 0.583114 -0.211495
rclavicle -5.09386e-016 3.57812e-015
rhumerus -32.947 -7.99861 -84.1718
rradius 25.926
rwrist 3.89579
rhand -19.2311 -8.49888
rfingers 7.12502
rthumb 7.08212 -38.3604
lclavicle -5.09386e-016 3.57812e-015
lhumerus -31.8967 -0.948452 85.1543
lradius 30.6527
lwrist 18.6493
lhand -17.0051 13.8908
lfingers 7.12502
lthumb 9.23039 43.6688
rfemur -33.9993 8.80809 17.5501
rtibia 28.4712
rfoot -20.8686 -12.5994
rtoes -7.82478
lfemur 27.953 9.58631 -22.6818
ltibia 9.54166e-015
lfoot -8.10443 2.04452
ltoes -18.6176
469
root 20.382 16.3147 -5.14614 228.417 -86.9245 -229.034
lowerback -0.770304 -1.79724 -1.83549
upperback 0.706553 -2.37029 -1.16315
thorax 1.18025 -1.19894 -0.20644
lowerneck -5.74703 0.999592 2.8968
upperneck 2.51251 1.07241 0.77269
head 1.77154 0.578608 -0.214322
rclavicle 9.05713e-015 -8.94531e-016
rhumerus -33.1038 -8.16258 -84.0236
rradius 25.7142
rwrist 4.05706
rhand -19.2448 -8.46824
rfingers 7.12502
rthumb 7.06885 -38.3302
lclavicle 9.05713e-015 -8.94531e-016
lhumerus -32.0446 -0.562461 85.0886
lradius 30.2773
lwrist 18.4883
lhand -17.0612 13.9857
lfingers 7.12502
lthumb 9.17629 43.7661
rfemur -33.717 8.56582 17.8122
rtibia 29.1603
rfoot -20.2896 -12.9502
rtoes -7.4433
lfemur 28.5902 9.53323 -22.4073
ltibia -1.59028e-014
lfoot -7.24287 1.83335
ltoes -19.4622
470
root 20.2005 16.3246 -5.17099 228.437 -87 -229.108
lowerback -0.899185 -1.79306 -1.75798
upperback 0.700443 -2.36206 -1.13796
thorax 1.24407 -1.19433 -0.228166
lowerneck -5.73237 0.99063 2.87594
upperneck 2.55676 1.06277 0.761201
head 1.78312 0.574011 -0.214691
rclavicle -2.19269e-014 4.37326e-015
rhumerus -33.2467 -8.35659 -83.8608
rradius 25.4758
rwrist 4.26431
rhand -19.2676 -8.39665
rfingers 7.12502
rthumb 7.04686 -38.2593
lclavicle -2.19269e-014 4.37326e-015
lhumerus -32.188 -0.134788 85.0141
lradius 29.8804
lwrist 18.3122
lhand -17.1315 14.0724
lfingers 7.12502
lthumb 9.10847 43.8557
rfemur -33.4472 8.36045 18.1063
rtibia 29.8299
rfoot -19.6126 -13.2103
rtoes -7.0341
lfemur 29.2201 9.50205 -22.086
ltibia -1.01778e-013
lfoot -6.25991 1.65039
ltoes -20.2181
